# This file uses centimeters as units for non-parametric coordinates.

g default
v 0.866025 0.000000 -0.500000
v 0.500000 0.000000 -0.866025
v -0.000000 0.000000 -1.000000
v -0.500000 0.000000 -0.866025
v -0.866025 0.000000 -0.500000
v -1.000000 0.000000 0.000000
v -0.866025 0.000000 0.500000
v -0.500000 0.000000 0.866025
v -0.000000 0.000000 1.000000
v 0.500000 0.000000 0.866025
v 0.866025 0.000000 0.500000
v 1.000000 0.000000 0.000000
v 0.866025 0.109805 -0.500000
v 0.500000 0.109805 -0.866025
v -0.000000 0.109805 -1.000000
v -0.500000 0.109805 -0.866025
v -0.866025 0.109805 -0.500000
v -1.000000 0.109805 0.000000
v -0.866025 0.109805 0.500000
v -0.500000 0.109805 0.866025
v -0.000000 0.109805 1.000000
v 0.500000 0.109805 0.866025
v 0.866025 0.109805 0.500000
v 1.000000 0.109805 0.000000
v 0.866025 1.000000 -0.500000
v 0.500000 1.000000 -0.866025
v -0.000000 1.000000 -1.000000
v -0.500000 1.000000 -0.866025
v -0.866025 1.000000 -0.500000
v -1.000000 1.000000 0.000000
v -0.866025 1.000000 0.500000
v -0.500000 1.000000 0.866025
v -0.000000 1.000000 1.000000
v 0.500000 1.000000 0.866025
v 0.866025 1.000000 0.500000
v 1.000000 1.000000 0.000000
v -0.000000 0.000000 0.000000
v -0.000000 1.000000 0.000000
vt 0.635316 0.078125
vt 0.578125 0.020934
vt 0.500000 0.000000
vt 0.421875 0.020934
vt 0.364684 0.078125
vt 0.343750 0.156250
vt 0.364684 0.234375
vt 0.421875 0.291566
vt 0.500000 0.312500
vt 0.578125 0.291566
vt 0.635316 0.234375
vt 0.656250 0.156250
vt 0.375000 0.312500
vt 0.395833 0.312500
vt 0.416667 0.312500
vt 0.437500 0.312500
vt 0.458333 0.312500
vt 0.479167 0.312500
vt 0.500000 0.312500
vt 0.520833 0.312500
vt 0.541667 0.312500
vt 0.562500 0.312500
vt 0.583333 0.312500
vt 0.604167 0.312500
vt 0.625000 0.312500
vt 0.375000 0.500470
vt 0.395833 0.500470
vt 0.416667 0.500470
vt 0.437500 0.500470
vt 0.458333 0.500470
vt 0.479167 0.500470
vt 0.500000 0.500470
vt 0.520833 0.500470
vt 0.541667 0.500470
vt 0.562500 0.500470
vt 0.583333 0.500470
vt 0.604167 0.500470
vt 0.625000 0.500470
vt 0.375000 0.688440
vt 0.395833 0.688440
vt 0.416667 0.688440
vt 0.437500 0.688440
vt 0.458333 0.688440
vt 0.479167 0.688440
vt 0.500000 0.688440
vt 0.520833 0.688440
vt 0.541667 0.688440
vt 0.562500 0.688440
vt 0.583333 0.688440
vt 0.604167 0.688440
vt 0.625000 0.688440
vt 0.635316 0.765625
vt 0.578125 0.708434
vt 0.500000 0.687500
vt 0.421875 0.708434
vt 0.364684 0.765625
vt 0.343750 0.843750
vt 0.364684 0.921875
vt 0.421875 0.979066
vt 0.500000 1.000000
vt 0.578125 0.979066
vt 0.635316 0.921875
vt 0.656250 0.843750
vt 0.500000 0.150000
vt 0.500000 0.837500
vn 0.707107 0.000000 -0.707107
vn 0.707107 0.000000 -0.707107
vn 0.707107 0.000000 -0.707107
vn 0.707107 0.000000 -0.707107
vn 0.258819 0.000000 -0.965926
vn 0.258819 0.000000 -0.965926
vn 0.258819 0.000000 -0.965926
vn 0.258819 0.000000 -0.965926
vn -0.258819 0.000000 -0.965926
vn -0.258819 0.000000 -0.965926
vn -0.258819 0.000000 -0.965926
vn -0.258819 0.000000 -0.965926
vn -0.707107 0.000000 -0.707107
vn -0.707107 0.000000 -0.707107
vn -0.707107 0.000000 -0.707107
vn -0.707107 0.000000 -0.707107
vn -0.965926 0.000000 -0.258819
vn -0.965926 0.000000 -0.258819
vn -0.965926 0.000000 -0.258819
vn -0.965926 0.000000 -0.258819
vn -0.965926 0.000000 0.258819
vn -0.965926 0.000000 0.258819
vn -0.965926 0.000000 0.258819
vn -0.965926 0.000000 0.258819
vn -0.707107 0.000000 0.707107
vn -0.707107 0.000000 0.707107
vn -0.707107 0.000000 0.707107
vn -0.707107 0.000000 0.707107
vn -0.258819 0.000000 0.965926
vn -0.258819 0.000000 0.965926
vn -0.258819 0.000000 0.965926
vn -0.258819 0.000000 0.965926
vn 0.258819 0.000000 0.965926
vn 0.258819 0.000000 0.965926
vn 0.258819 0.000000 0.965926
vn 0.258819 0.000000 0.965926
vn 0.707107 0.000000 0.707107
vn 0.707107 0.000000 0.707107
vn 0.707107 0.000000 0.707107
vn 0.707107 0.000000 0.707107
vn 0.965926 0.000000 0.258819
vn 0.965926 0.000000 0.258819
vn 0.965926 0.000000 0.258819
vn 0.965926 0.000000 0.258819
vn 0.965926 0.000000 -0.258819
vn 0.965926 0.000000 -0.258819
vn 0.965926 0.000000 -0.258819
vn 0.965926 0.000000 -0.258819
vn 0.707107 0.000000 -0.707107
vn 0.707107 0.000000 -0.707107
vn 0.258819 0.000000 -0.965926
vn 0.258819 0.000000 -0.965926
vn -0.258819 0.000000 -0.965926
vn -0.258819 0.000000 -0.965926
vn -0.707107 0.000000 -0.707107
vn -0.707107 0.000000 -0.707107
vn -0.965926 0.000000 -0.258819
vn -0.965926 0.000000 -0.258819
vn -0.965926 0.000000 0.258819
vn -0.965926 0.000000 0.258819
vn -0.707107 0.000000 0.707107
vn -0.707107 0.000000 0.707107
vn -0.258819 0.000000 0.965926
vn -0.258819 0.000000 0.965926
vn 0.258819 0.000000 0.965926
vn 0.258819 0.000000 0.965926
vn 0.707107 0.000000 0.707107
vn 0.707107 0.000000 0.707107
vn 0.965926 0.000000 0.258819
vn 0.965926 0.000000 0.258819
vn 0.965926 0.000000 -0.258819
vn 0.965926 0.000000 -0.258819
vn 0.000000 -1.000000 0.000000
vn 0.000000 -1.000000 0.000000
vn 0.000000 -1.000000 0.000000
vn 0.000000 -1.000000 0.000000
vn 0.000000 -1.000000 0.000000
vn 0.000000 -1.000000 0.000000
vn 0.000000 -1.000000 0.000000
vn 0.000000 -1.000000 0.000000
vn 0.000000 -1.000000 0.000000
vn 0.000000 -1.000000 0.000000
vn 0.000000 -1.000000 0.000000
vn 0.000000 -1.000000 0.000000
vn 0.000000 -1.000000 0.000000
vn 0.000000 1.000000 0.000000
vn 0.000000 1.000000 0.000000
vn 0.000000 1.000000 0.000000
vn 0.000000 1.000000 0.000000
vn 0.000000 1.000000 0.000000
vn 0.000000 1.000000 0.000000
vn 0.000000 1.000000 0.000000
vn 0.000000 1.000000 0.000000
vn 0.000000 1.000000 0.000000
vn 0.000000 1.000000 0.000000
vn 0.000000 1.000000 0.000000
vn 0.000000 1.000000 0.000000
vn 0.000000 1.000000 0.000000
s 1
g highPoly
f 1/13/1 2/14/2 14/27/3 13/26/4
s 2
f 2/14/5 3/15/6 15/28/7 14/27/8
s 3
f 3/15/9 4/16/10 16/29/11 15/28/12
s 4
f 4/16/13 5/17/14 17/30/15 16/29/16
s 5
f 5/17/17 6/18/18 18/31/19 17/30/20
s 6
f 6/18/21 7/19/22 19/32/23 18/31/24
s 7
f 7/19/25 8/20/26 20/33/27 19/32/28
s 8
f 8/20/29 9/21/30 21/34/31 20/33/32
s 9
f 9/21/33 10/22/34 22/35/35 21/34/36
s 10
f 10/22/37 11/23/38 23/36/39 22/35/40
s 11
f 11/23/41 12/24/42 24/37/43 23/36/44
s 12
f 12/24/45 1/25/46 13/38/47 24/37/48
s 1
f 13/26/4 14/27/3 26/40/49 25/39/50
s 2
f 14/27/8 15/28/7 27/41/51 26/40/52
s 3
f 15/28/12 16/29/11 28/42/53 27/41/54
s 4
f 16/29/16 17/30/15 29/43/55 28/42/56
s 5
f 17/30/20 18/31/19 30/44/57 29/43/58
s 6
f 18/31/24 19/32/23 31/45/59 30/44/60
s 7
f 19/32/28 20/33/27 32/46/61 31/45/62
s 8
f 20/33/32 21/34/31 33/47/63 32/46/64
s 9
f 21/34/36 22/35/35 34/48/65 33/47/66
s 10
f 22/35/40 23/36/39 35/49/67 34/48/68
s 11
f 23/36/44 24/37/43 36/50/69 35/49/70
s 12
f 24/37/48 13/38/47 25/51/71 36/50/72
s 13
f 2/2/73 1/1/74 37/64/75
f 3/3/76 2/2/73 37/64/75
f 4/4/77 3/3/76 37/64/75
f 5/5/78 4/4/77 37/64/75
f 6/6/79 5/5/78 37/64/75
f 7/7/80 6/6/79 37/64/75
f 8/8/81 7/7/80 37/64/75
f 9/9/82 8/8/81 37/64/75
f 10/10/83 9/9/82 37/64/75
f 11/11/84 10/10/83 37/64/75
f 12/12/85 11/11/84 37/64/75
f 1/1/74 12/12/85 37/64/75
s 14
f 25/62/86 26/61/87 38/65/88
f 26/61/87 27/60/89 38/65/88
f 27/60/89 28/59/90 38/65/88
f 28/59/90 29/58/91 38/65/88
f 29/58/91 30/57/92 38/65/88
f 30/57/92 31/56/93 38/65/88
f 31/56/93 32/55/94 38/65/88
f 32/55/94 33/54/95 38/65/88
f 33/54/95 34/53/96 38/65/88
f 34/53/96 35/52/97 38/65/88
f 35/52/97 36/63/98 38/65/88
f 36/63/98 25/62/86 38/65/88
