# This file uses centimeters as units for non-parametric coordinates.

g default
v 0.500000 0.000000 -0.866025
v -0.500000 0.000000 -0.866026
v -1.000000 0.000000 -0.000000
v -0.500000 0.000000 0.866025
v 0.500000 0.000000 0.866025
v 1.000000 0.000000 0.000000
v 0.500000 0.084229 -0.866025
v -0.500000 0.084229 -0.866026
v -1.000000 0.084229 -0.000000
v -0.500000 0.084229 0.866025
v 0.500000 0.084229 0.866025
v 1.000000 0.084229 0.000000
v 0.500000 1.000000 -0.866025
v -0.500000 1.000000 -0.866026
v -1.000000 1.000000 -0.000000
v -0.500000 1.000000 0.866025
v 0.500000 1.000000 0.866025
v 1.000000 1.000000 0.000000
v -0.000000 0.000000 0.000000
v -0.000000 1.000000 0.000000
vt 0.578125 0.020934
vt 0.421875 0.020934
vt 0.343750 0.156250
vt 0.421875 0.291566
vt 0.578125 0.291566
vt 0.656250 0.156250
vt 0.375000 0.312500
vt 0.416667 0.312500
vt 0.458333 0.312500
vt 0.500000 0.312500
vt 0.541667 0.312500
vt 0.583333 0.312500
vt 0.625000 0.312500
vt 0.375000 0.500470
vt 0.416667 0.500470
vt 0.458333 0.500470
vt 0.500000 0.500470
vt 0.541667 0.500470
vt 0.583333 0.500470
vt 0.625000 0.500470
vt 0.375000 0.688440
vt 0.416667 0.688440
vt 0.458333 0.688440
vt 0.500000 0.688440
vt 0.541667 0.688440
vt 0.583333 0.688440
vt 0.625000 0.688440
vt 0.578125 0.708434
vt 0.421875 0.708434
vt 0.343750 0.843750
vt 0.421875 0.979066
vt 0.578125 0.979066
vt 0.656250 0.843750
vt 0.500000 0.150000
vt 0.500000 0.837500
vn 0.000000 0.000000 -1.000000
vn 0.000000 0.000000 -1.000000
vn 0.000000 0.000000 -1.000000
vn 0.000000 0.000000 -1.000000
vn -0.866025 0.000000 -0.500000
vn -0.866025 0.000000 -0.500000
vn -0.866025 0.000000 -0.500000
vn -0.866025 0.000000 -0.500000
vn -0.866026 0.000000 0.500000
vn -0.866026 0.000000 0.500000
vn -0.866026 0.000000 0.500000
vn -0.866026 0.000000 0.500000
vn -0.000000 0.000000 1.000000
vn -0.000000 0.000000 1.000000
vn -0.000000 0.000000 1.000000
vn -0.000000 0.000000 1.000000
vn 0.866026 0.000000 0.500000
vn 0.866026 0.000000 0.500000
vn 0.866026 0.000000 0.500000
vn 0.866026 0.000000 0.500000
vn 0.866025 0.000000 -0.500000
vn 0.866025 0.000000 -0.500000
vn 0.866026 0.000000 -0.500000
vn 0.866026 0.000000 -0.500000
vn 0.000000 0.000000 -1.000000
vn 0.000000 0.000000 -1.000000
vn -0.866025 0.000000 -0.500000
vn -0.866025 0.000000 -0.500000
vn -0.866026 0.000000 0.500000
vn -0.866026 0.000000 0.500000
vn -0.000000 0.000000 1.000000
vn -0.000000 0.000000 1.000000
vn 0.866026 0.000000 0.500000
vn 0.866026 0.000000 0.500000
vn 0.866026 0.000000 -0.500000
vn 0.866026 0.000000 -0.500000
vn 0.000000 -1.000000 0.000000
vn 0.000000 -1.000000 0.000000
vn 0.000000 -1.000000 0.000000
vn 0.000000 -1.000000 0.000000
vn 0.000000 -1.000000 -0.000000
vn 0.000000 -1.000000 -0.000000
vn 0.000000 -1.000000 0.000000
vn 0.000000 1.000000 0.000000
vn 0.000000 1.000000 -0.000000
vn 0.000000 1.000000 0.000000
vn 0.000000 1.000000 -0.000000
vn 0.000000 1.000000 0.000000
vn 0.000000 1.000000 0.000000
vn 0.000000 1.000000 0.000000
s 1
g lowPoly
f 1/7/1 2/8/2 8/15/3 7/14/4
s 2
f 2/8/5 3/9/6 9/16/7 8/15/8
s 3
f 3/9/9 4/10/10 10/17/11 9/16/12
s 4
f 4/10/13 5/11/14 11/18/15 10/17/16
s 5
f 5/11/17 6/12/18 12/19/19 11/18/20
s 6
f 6/12/21 1/13/22 7/20/23 12/19/24
s 1
f 7/14/4 8/15/3 14/22/25 13/21/26
s 2
f 8/15/8 9/16/7 15/23/27 14/22/28
s 3
f 9/16/12 10/17/11 16/24/29 15/23/30
s 4
f 10/17/16 11/18/15 17/25/31 16/24/32
s 5
f 11/18/20 12/19/19 18/26/33 17/25/34
s 6
f 12/19/24 7/20/23 13/27/35 18/26/36
s 7
f 2/2/37 1/1/38 19/34/39
f 3/3/40 2/2/37 19/34/39
f 4/4/41 3/3/40 19/34/39
f 5/5/42 4/4/41 19/34/39
f 6/6/43 5/5/42 19/34/39
f 1/1/38 6/6/43 19/34/39
s 8
f 13/32/44 14/31/45 20/35/46
f 14/31/45 15/30/47 20/35/46
f 15/30/47 16/29/48 20/35/46
f 16/29/48 17/28/49 20/35/46
f 17/28/49 18/33/50 20/35/46
f 18/33/50 13/32/44 20/35/46
